<svg width="20" height="20" viewBox="0 0 20 20" fill="none" xmlns="http://www.w3.org/2000/svg">
<path fill-rule="evenodd" clip-rule="evenodd" d="M16.1238 2.79043C16.2678 2.64644 16.463 2.56555 16.6667 2.56555C16.8703 2.56555 17.0656 2.64644 17.2096 2.79043C17.3535 2.93441 17.4344 3.12969 17.4344 3.33332C17.4344 3.53694 17.3535 3.73223 17.2096 3.87621L9.48875 11.597L8.04104 11.959L8.40297 10.5112L16.1238 2.79043ZM16.6667 0.565552C15.9326 0.565552 15.2286 0.857155 14.7096 1.37621L6.79289 9.29288C6.66474 9.42104 6.57382 9.58162 6.52986 9.75745L5.69653 13.0908C5.61133 13.4316 5.71118 13.792 5.95956 14.0404C6.20794 14.2888 6.56843 14.3887 6.9092 14.3035L10.2425 13.4701C10.4184 13.4262 10.5789 13.3353 10.7071 13.2071L18.6238 5.29043C19.1428 4.77137 19.4344 4.06738 19.4344 3.33332C19.4344 2.59926 19.1428 1.89527 18.6238 1.37621C18.1047 0.857155 17.4007 0.565552 16.6667 0.565552ZM3.33333 2.33333C2.62609 2.33333 1.94781 2.61428 1.44772 3.11438C0.947619 3.61448 0.666668 4.29276 0.666668 5V16.6667C0.666668 17.3739 0.947619 18.0522 1.44772 18.5523C1.94781 19.0524 2.62609 19.3333 3.33333 19.3333H15C15.7072 19.3333 16.3855 19.0524 16.8856 18.5523C17.3857 18.0522 17.6667 17.3739 17.6667 16.6667V10.8333C17.6667 10.281 17.219 9.83333 16.6667 9.83333C16.1144 9.83333 15.6667 10.281 15.6667 10.8333V16.6667C15.6667 16.8435 15.5964 17.013 15.4714 17.1381C15.3464 17.2631 15.1768 17.3333 15 17.3333H3.33333C3.15652 17.3333 2.98695 17.2631 2.86193 17.1381C2.73691 17.013 2.66667 16.8435 2.66667 16.6667V5C2.66667 4.82319 2.73691 4.65362 2.86193 4.5286C2.98695 4.40357 3.15652 4.33333 3.33333 4.33333H9.16667C9.71895 4.33333 10.1667 3.88562 10.1667 3.33333C10.1667 2.78105 9.71895 2.33333 9.16667 2.33333H3.33333Z" fill="#040432"/>
</svg>
