<svg width="20" height="16" viewBox="0 0 20 16" fill="none" xmlns="http://www.w3.org/2000/svg">
<path fill-rule="evenodd" clip-rule="evenodd" d="M6.03333 0.333344H6.0328C5.53669 0.333607 5.05049 0.472262 4.62886 0.733716C4.20772 0.994873 3.86768 1.36821 3.64689 1.81182L3.64614 1.81334L0.781495 7.53432C0.708172 7.6734 0.666668 7.83186 0.666668 8.00001V13C0.666668 13.7073 0.94762 14.3855 1.44772 14.8856C1.94781 15.3857 2.62609 15.6667 3.33333 15.6667H16.6667C17.3739 15.6667 18.0522 15.3857 18.5523 14.8856C19.0524 14.3855 19.3333 13.7073 19.3333 13V8.00001C19.3333 7.98727 19.3331 7.97454 19.3326 7.96184C19.3268 7.80788 19.2863 7.66282 19.2185 7.53431L16.3539 1.81334L16.3532 1.812C16.1324 1.36831 15.7923 0.994909 15.3711 0.733716C14.9495 0.472261 14.4633 0.333607 13.9672 0.333344H13.9667H6.03333ZM16.7143 7.00001L14.5642 2.70608L14.5628 2.70334C14.5076 2.59227 14.4225 2.4988 14.3171 2.43344C14.2118 2.3681 14.0903 2.33344 13.9663 2.33334H6.03369C5.90972 2.33344 5.78824 2.3681 5.68288 2.43344C5.57747 2.4988 5.49239 2.59227 5.4372 2.70334L4.54166 2.25834L5.43584 2.70608L3.28575 7.00001H6.66667C7.00102 7.00001 7.31325 7.16711 7.49872 7.44531L8.86852 9.50001H11.1315L12.5013 7.44531C12.6868 7.16711 12.999 7.00001 13.3333 7.00001H16.7143ZM2.66667 9.00001V13C2.66667 13.1768 2.73691 13.3464 2.86193 13.4714C2.98695 13.5964 3.15652 13.6667 3.33333 13.6667H16.6667C16.8435 13.6667 17.013 13.5964 17.1381 13.4714C17.2631 13.3464 17.3333 13.1768 17.3333 13V9.00001H13.8685L12.4987 11.0547C12.3133 11.3329 12.001 11.5 11.6667 11.5H8.33333C7.99898 11.5 7.68675 11.3329 7.50128 11.0547L6.13148 9.00001H2.66667Z" fill="#040432"/>
</svg>
