<svg width="20" height="18" viewBox="0 0 20 18" fill="none" xmlns="http://www.w3.org/2000/svg">
<path fill-rule="evenodd" clip-rule="evenodd" d="M8.69175 0.757399C9.09111 0.532551 9.54169 0.414429 10 0.414429C10.4583 0.414429 10.9089 0.532551 11.3083 0.757399C11.7076 0.982246 12.0423 1.30623 12.28 1.69809L12.2829 1.70284L12.2829 1.70284L19.3412 13.4862L19.3493 13.5C19.5822 13.9032 19.7054 14.3604 19.7067 14.826C19.708 15.2916 19.5873 15.7495 19.3568 16.154C19.1262 16.5586 18.7937 16.8957 18.3924 17.1318C17.9911 17.3679 17.5349 17.4949 17.0693 17.5L17.0583 17.5001V17.5H2.94167H2.93068L2.93068 17.5C2.46508 17.4949 2.00893 17.3679 1.60763 17.1318C1.20632 16.8957 0.873831 16.5585 0.643251 16.154C0.41267 15.7495 0.29203 15.2916 0.293334 14.826C0.294638 14.3604 0.41784 13.9032 0.650682 13.5L0.658805 13.4862L7.71714 1.70284L8.57501 2.21672L7.72001 1.69809C7.9577 1.30623 8.29238 0.982246 8.69175 0.757399ZM9.43114 2.73348L2.37958 14.5055C2.32336 14.605 2.29365 14.7173 2.29333 14.8316C2.293 14.948 2.32316 15.0625 2.38081 15.1636C2.43845 15.2647 2.52157 15.349 2.6219 15.4081C2.72101 15.4664 2.8335 15.4981 2.94842 15.5H17.0516C17.1665 15.4981 17.279 15.4664 17.3781 15.4081C17.4784 15.349 17.5616 15.2647 17.6192 15.1636C17.6769 15.0625 17.707 14.948 17.7067 14.8316C17.7064 14.7173 17.6766 14.605 17.6204 14.5055L10.57 2.73534L10.5689 2.73356C10.5096 2.63639 10.4263 2.55604 10.3271 2.50017C10.2272 2.44396 10.1146 2.41443 10 2.41443C9.88543 2.41443 9.77278 2.44396 9.67294 2.50017C9.57373 2.55603 9.49049 2.63635 9.43114 2.73348ZM10 5.50003C10.5523 5.50003 11 5.94775 11 6.50003V9.83336C11 10.3856 10.5523 10.8334 10 10.8334C9.44772 10.8334 9 10.3856 9 9.83336V6.50003C9 5.94775 9.44772 5.50003 10 5.50003ZM10 12.1667C9.44772 12.1667 9 12.6144 9 13.1667C9 13.719 9.44772 14.1667 10 14.1667H10.0083C10.5606 14.1667 11.0083 13.719 11.0083 13.1667C11.0083 12.6144 10.5606 12.1667 10.0083 12.1667H10Z" fill="#040432"/>
</svg>
