<svg width="70" height="70" viewBox="0 0 70 70" fill="none" xmlns="http://www.w3.org/2000/svg">
<circle cx="35" cy="35" r="35" fill="#364FC7"/>
<g clip-path="url(#clip0_304_470)">
<path d="M12.3199 39.3259V44.71H54.9909C56.1904 44.71 57.1056 39.231 57.1056 39.231L12.3199 39.3259Z" fill="#F2C05A"/>
<path d="M12.3196 46.027C11.58 46.027 11 45.4483 11 44.71V39.3254C11 38.5995 11.5919 38.0089 12.3196 38.0089L57.1371 37.914C57.5096 37.914 57.895 38.0903 58.1188 38.3632C58.3762 38.6712 58.4751 39.0455 58.4 39.4198C57.3064 46.027 55.6473 46.027 55.0229 46.027H12.3196ZM54.6218 43.4248L54.7105 43.2474C54.9105 42.8483 55.1413 42.1401 55.4592 40.9509L55.5673 40.547L13.671 40.643V43.4248H13.9921H54.6218Z" fill="#4C2F1B"/>
<path d="M45.6175 12.6865C44.7023 12.214 43.566 12.3402 42.8087 13.0333L12.3517 39.3259H18.0332V54.4718C18.0332 56.2667 19.4847 57.7148 21.2837 57.7148C23.0828 57.7148 24.5342 56.2667 24.5342 54.4718V39.3259H27.9113V46.4736C27.9113 48.2998 29.426 49.8115 31.2569 49.8115C33.0874 49.8115 34.6026 48.3003 34.6026 46.4736V39.3259H39.4316C39.9052 41.1208 41.515 42.4432 43.4401 42.4432C45.3656 42.4432 47.0063 41.1208 47.4485 39.3259L57.1693 39.2947C60.23 21.8814 49.7519 14.765 45.6175 12.6865Z" fill="#FFDE8A"/>
<path d="M35.5808 24.1482C37.4426 24.1482 38.9265 22.6683 38.9265 20.8103C38.9265 19.5192 38.2005 18.4486 37.1588 17.8823L32.4563 21.944C32.9298 23.2351 34.1288 24.1482 35.5808 24.1482Z" fill="#FFD700"/>
<path d="M35.581 24.8094C33.9079 24.8094 32.3932 23.7389 31.8251 22.1646C31.7305 21.9127 31.7932 21.6296 32.0143 21.4408L36.7168 17.3786C36.906 17.1898 37.2217 17.158 37.4423 17.2842C38.7678 17.9773 39.557 19.331 39.557 20.7796C39.5895 23.0146 37.7904 24.8094 35.581 24.8094ZM33.2452 22.1333C33.7187 22.9838 34.6026 23.5188 35.581 23.5188C37.0644 23.5188 38.2639 22.3226 38.2639 20.8422C38.2639 19.9922 37.8536 19.2048 37.1903 18.701L33.2452 22.1333Z" fill="#4C2F1B"/>
<path d="M46.6589 27.0137C46.2799 28.6198 47.3216 30.2572 48.931 30.6034C50.0673 30.8553 51.1717 30.4459 51.8663 29.6272L49.2153 24.6838C47.9844 24.8413 46.9427 25.7225 46.6589 27.0137Z" fill="#FFD700"/>
<path d="M49.5939 31.3277C49.3415 31.3277 49.0576 31.2964 48.8052 31.2333C46.8483 30.7927 45.586 28.8404 46.0277 26.8567C46.3747 25.3768 47.6056 24.2431 49.1522 24.0544C49.4047 24.0231 49.689 24.1488 49.815 24.4006L52.466 29.3128C52.5925 29.5647 52.5606 29.8478 52.3714 30.0371C51.6454 30.8553 50.6356 31.3277 49.5939 31.3277ZM47.2899 27.1399C47.1634 27.7698 47.2586 28.3992 47.6051 28.9029C47.9527 29.4379 48.4576 29.816 49.0885 29.9422C49.7831 30.0997 50.5086 29.9109 51.0767 29.4697L48.8993 25.4081C48.0792 25.6912 47.4791 26.3206 47.2899 27.1399Z" fill="#4C2F1B"/>
<path d="M21.2515 59C18.7313 59 16.6804 56.9543 16.6804 54.4395V40.6106H12.3195C11.7573 40.6106 11.2821 40.2768 11.1091 39.7596C10.9015 39.2391 11.054 38.6653 11.4821 38.3131L41.9451 12.0156C42.6511 11.4147 43.5463 11.0825 44.4647 11.0825C45.0696 11.0825 45.6529 11.2206 46.1989 11.4935C49.8976 13.3536 61.7126 20.8664 58.4301 39.4273C58.3301 40.0503 57.7744 40.5162 57.1365 40.5162L48.3239 40.5486L48.2347 40.7212C47.2947 42.5371 45.4448 43.6654 43.4073 43.6654C41.3704 43.6654 39.5205 42.5376 38.5799 40.7212L38.4896 40.5475H35.89V46.3787C35.89 48.9281 33.8114 51.0018 31.2561 51.0018C28.7008 51.0018 26.6228 48.9281 26.6228 46.3792V40.548H25.8535V54.3769C25.8243 56.9247 23.7598 59 21.2515 59ZM44.4323 13.7182C44.135 13.7182 43.8598 13.8228 43.636 14.0213L15.8441 38.0089H18.0005C18.3664 38.0089 18.6854 38.1389 18.8978 38.3751C19.1579 38.6351 19.2887 38.9597 19.2887 39.3259V54.4718C19.2887 55.5516 20.1693 56.4301 21.251 56.4301C22.3516 56.4301 23.2133 55.5699 23.2133 54.4718V39.3254C23.2133 38.5995 23.8052 38.0089 24.5329 38.0089H27.9099C28.2753 38.0089 28.5943 38.1389 28.8073 38.3751C29.0673 38.6351 29.1981 38.9597 29.1981 39.3259V46.4736C29.1981 47.5879 30.1068 48.4945 31.2237 48.4945C32.3405 48.4945 33.2492 47.5879 33.2492 46.4736V39.2941C33.2492 38.5676 33.8412 37.9771 34.5688 37.9771H39.3978C40.0011 37.9771 40.5103 38.3746 40.665 38.9657C40.9877 40.2191 42.1153 41.0949 43.4062 41.0949C44.6972 41.0949 45.8248 40.2191 46.1475 38.9651C46.3022 38.3751 46.8114 37.9776 47.4141 37.9776L56.0262 37.9453L56.0645 37.6702C58.2144 22.3156 49.0467 15.8965 45.0053 13.8493C44.8096 13.7603 44.6209 13.7182 44.4323 13.7182Z" fill="#4C2F1B"/>
<path d="M57.1371 39.231C60.2936 21.5034 49.31 14.4814 45.3649 12.5608C44.5756 12.1828 43.6285 12.309 42.9658 12.8758L40.5672 14.9543C45.8065 18.8585 54.6121 26.0699 51.9292 39.2634L57.1371 39.231Z" fill="#FFB07B"/>
<path d="M51.9299 40.548C51.5466 40.548 51.1666 40.3674 50.9147 40.0648C50.6633 39.7644 50.559 39.3588 50.6352 38.9786C52.9457 27.5827 46.4289 20.9613 39.75 15.9877C39.4343 15.7693 39.243 15.3993 39.2154 14.9651C39.1911 14.5736 39.356 14.1998 39.6684 13.9404L42.0718 11.8575C42.7135 11.3047 43.5249 11 44.3564 11C44.885 11 45.4121 11.1267 45.8819 11.3662C49.6595 13.2042 61.7069 20.6534 58.3677 39.4586C58.2677 40.0821 57.712 40.548 57.0746 40.548H51.9299ZM44.3747 13.6357C44.1569 13.6357 43.9428 13.7144 43.7704 13.8579L42.6232 14.8745L42.926 15.1113C45.9532 17.4832 55.1658 24.7016 53.5046 37.5526L53.4581 37.914H55.9973L56.0356 37.6378C58.2255 21.9904 48.8702 15.6991 44.7467 13.7204C44.6369 13.6659 44.5072 13.6357 44.3747 13.6357Z" fill="#4C2F1B"/>
<path d="M51.9296 39.231C51.9296 39.231 51.6453 42.6946 50.383 44.71H55.0223C55.0223 44.71 56.6635 43.8282 57.1371 39.231H51.9296Z" fill="#E2803D"/>
<path d="M50.3829 46.027C49.8969 46.027 49.4726 45.773 49.2466 45.3475C49.0104 44.9274 49.0196 44.4252 49.2666 44.0299C50.1753 42.5532 50.5494 39.9316 50.6089 39.1291C50.6581 38.4652 51.2246 37.9458 51.8982 37.9458H57.1056C57.4921 37.9458 57.8381 38.0979 58.0565 38.3638C58.3316 38.6663 58.4457 39.0126 58.3965 39.3777C57.8613 44.4376 55.9715 45.6781 55.5979 45.8755C55.4466 45.9742 55.2319 46.027 55.0222 46.027H50.3829ZM53.0658 40.8058C52.941 41.4293 52.7853 42.2054 52.5377 43.0101L52.4101 43.4248H54.527L54.6232 43.2878C54.8406 42.9777 55.2514 42.2604 55.5568 40.9407L55.6477 40.548H53.1177L53.0658 40.8058Z" fill="#4C2F1B"/>
<path d="M26.8699 32.6502C26.8699 33.8502 27.8446 34.8226 29.0474 34.8226C30.2502 34.8226 31.2249 33.8502 31.2249 32.6502C31.2249 31.4502 30.2502 30.4778 29.0474 30.4778C27.8446 30.4778 26.8699 31.4502 26.8699 32.6502Z" fill="#FFD700"/>
<path d="M29.0475 35.4843C27.5009 35.4843 26.2068 34.225 26.2068 32.6507C26.2068 31.0764 27.469 29.8165 29.0475 29.8165C30.6255 29.8165 31.8877 31.0759 31.8877 32.6507C31.8877 34.2245 30.6255 35.4843 29.0475 35.4843ZM29.0475 31.139C28.1956 31.139 27.5328 31.832 27.5328 32.6502C27.5328 33.4689 28.2269 34.1614 29.0475 34.1614C29.8681 34.1614 30.5622 33.4683 30.5622 32.6502C30.5622 31.8315 29.8995 31.139 29.0475 31.139Z" fill="#4C2F1B"/>
<path d="M39.7784 34.8231H35.2018C34.9493 34.8231 34.7282 34.6025 34.7282 34.3507V33.3114C34.7282 33.0595 34.9493 32.8389 35.2018 32.8389H39.7784C40.0308 32.8389 40.2519 33.0595 40.2519 33.3114V34.3507C40.2833 34.6025 40.0622 34.8231 39.7784 34.8231Z" fill="#3DE25C"/>
<path d="M39.2736 35.4843H35.7387C34.8235 35.4843 34.0975 34.76 34.0975 33.8469C34.0975 32.9338 34.8235 32.2095 35.7387 32.2095H39.2736C40.1888 32.2095 40.9148 32.9338 40.9148 33.8469C40.9148 34.76 40.1888 35.4843 39.2736 35.4843ZM35.7387 33.5001C35.5495 33.5001 35.3917 33.6576 35.3917 33.8464C35.3917 34.0357 35.5495 34.1932 35.7387 34.1932H39.2736C39.4628 34.1932 39.6207 34.0357 39.6207 33.8464C39.6207 33.6576 39.4628 33.5001 39.2736 33.5001H35.7387Z" fill="#4C2F1B"/>
<path d="M42.9346 30.0679L40.5041 27.423C40.4095 27.3286 40.4095 27.1711 40.5041 27.0768L41.6085 26.0693C41.7031 25.9749 41.861 25.9749 41.9561 26.0693L44.3866 28.7142C44.4812 28.8085 44.4812 28.966 44.3866 29.0604L43.2822 30.0679C43.2184 30.1628 43.0292 30.1628 42.9346 30.0679Z" fill="#3DE25C"/>
<path d="M43.1554 30.6978H43.0927C42.777 30.6978 42.4927 30.5403 42.2721 30.3197L40.1892 28.0842C39.9681 27.8636 39.8735 27.5492 39.8735 27.2343C39.8735 26.9198 40.0314 26.6361 40.2525 26.4156L40.9466 25.7856C41.1677 25.565 41.4834 25.4707 41.7991 25.4707C42.1148 25.4707 42.3986 25.6281 42.6197 25.8487L44.7026 28.0842C44.9237 28.3048 45.0183 28.6198 45.0183 28.9347C45.0183 29.2497 44.8604 29.5329 44.6393 29.7534L43.9452 30.3834C43.7236 30.5716 43.4392 30.6978 43.1554 30.6978ZM41.2618 27.2655L43.1554 29.3123L43.6603 28.8398L41.7667 26.7931L41.2618 27.2655Z" fill="#4C2F1B"/>
</g>
<defs>
<clipPath id="clip0_304_470">
<rect width="48" height="48" fill="white" transform="translate(11 11)"/>
</clipPath>
</defs>
</svg>
