<svg width="20" height="20" viewBox="0 0 20 20" fill="none" xmlns="http://www.w3.org/2000/svg">
<path fill-rule="evenodd" clip-rule="evenodd" d="M19.0404 0.959547C19.2639 1.18303 19.3595 1.48598 19.3272 1.77744C19.3182 1.85915 19.299 1.93997 19.2699 2.01787L13.4439 18.6637C13.3084 19.0507 12.9504 19.3158 12.5408 19.3325C12.1311 19.3492 11.7527 19.1141 11.5862 18.7395L8.40906 11.5909L1.26053 8.4138C0.885846 8.24727 0.650783 7.8689 0.667497 7.45922C0.68421 7.04955 0.949315 6.69158 1.33631 6.55613L17.9821 0.730105C18.06 0.700939 18.1408 0.68183 18.2225 0.672773C18.2829 0.666041 18.3435 0.664873 18.4035 0.669099C18.6355 0.685314 18.863 0.782131 19.0404 0.959547ZM14.5276 4.05813L4.37774 7.61059L8.9452 9.64057L14.5276 4.05813ZM10.3594 11.0548L15.9419 5.47234L12.3894 15.6222L10.3594 11.0548Z" fill="#040432"/>
</svg>
