<svg width="18" height="20" viewBox="0 0 18 20" fill="none" xmlns="http://www.w3.org/2000/svg">
<path fill-rule="evenodd" clip-rule="evenodd" d="M6.86193 2.86195C6.98695 2.73692 7.15652 2.66669 7.33333 2.66669H10.6667C10.8435 2.66669 11.013 2.73692 11.1381 2.86195C11.2631 2.98697 11.3333 3.15654 11.3333 3.33335V4.00002H6.66667V3.33335C6.66667 3.15654 6.7369 2.98697 6.86193 2.86195ZM4.66667 4.00002V3.33335C4.66667 2.62611 4.94762 1.94783 5.44772 1.44774C5.94781 0.947639 6.62609 0.666687 7.33333 0.666687H10.6667C11.3739 0.666687 12.0522 0.947639 12.5523 1.44774C13.0524 1.94783 13.3333 2.62611 13.3333 3.33335V4.00002H14.8333H16.5C17.0523 4.00002 17.5 4.44774 17.5 5.00002C17.5 5.55231 17.0523 6.00002 16.5 6.00002H15.8333V16.6667C15.8333 17.3739 15.5524 18.0522 15.0523 18.5523C14.5522 19.0524 13.8739 19.3334 13.1667 19.3334H4.83333C4.12609 19.3334 3.44781 19.0524 2.94771 18.5523C2.44762 18.0522 2.16667 17.3739 2.16667 16.6667V6.00002H1.5C0.947715 6.00002 0.5 5.55231 0.5 5.00002C0.5 4.44774 0.947715 4.00002 1.5 4.00002H3.16667H4.66667ZM4.16667 6.00002V16.6667C4.16667 16.8435 4.2369 17.0131 4.36193 17.1381C4.48695 17.2631 4.65652 17.3334 4.83333 17.3334H13.1667C13.3435 17.3334 13.513 17.2631 13.6381 17.1381C13.7631 17.0131 13.8333 16.8435 13.8333 16.6667V6.00002H12.3333H5.66667H4.16667ZM7.33333 8.16669C7.88562 8.16669 8.33333 8.6144 8.33333 9.16669V14.1667C8.33333 14.719 7.88562 15.1667 7.33333 15.1667C6.78105 15.1667 6.33333 14.719 6.33333 14.1667V9.16669C6.33333 8.6144 6.78105 8.16669 7.33333 8.16669ZM11.6667 9.16669C11.6667 8.6144 11.219 8.16669 10.6667 8.16669C10.1144 8.16669 9.66667 8.6144 9.66667 9.16669V14.1667C9.66667 14.719 10.1144 15.1667 10.6667 15.1667C11.219 15.1667 11.6667 14.719 11.6667 14.1667V9.16669Z" fill="#040432"/>
</svg>
